<?xml version="1.0" encoding="UTF-8"?><svg id="Layer_1" xmlns="http://www.w3.org/2000/svg" viewBox="0 0 150 150"><defs><style>.cls-1{fill:#f3f3f3;}</style></defs><g id="g3065"><g id="text3035"><path id="path3063" class="cls-1" d="m23.36,72.19l7.19-22.19c16.56,5.83,28.59,10.89,36.09,15.16-1.98-18.85-3.02-31.82-3.12-38.91h22.66c-.31,10.31-1.51,23.23-3.59,38.75,10.73-5.42,23.02-10.42,36.88-15l7.19,22.19c-13.23,4.38-26.2,7.29-38.91,8.75,6.35,5.52,15.31,15.36,26.88,29.53l-18.75,13.28c-6.04-8.23-13.18-19.43-21.41-33.59-7.71,14.69-14.48,25.89-20.31,33.59l-18.44-13.28c12.08-14.9,20.73-24.74,25.94-29.53-13.44-2.6-26.2-5.52-38.28-8.75"/></g></g></svg>